<svg width="506" height="322" viewBox="0 0 506 322" fill="none" xmlns="http://www.w3.org/2000/svg">
<path d="M437.1 141.45C451.9 131.05 461.7 113.75 461.7 94.25C461.7 62.35 435.9 36.55 404 36.55C372.1 36.55 346.3 62.35 346.3 94.25C346.3 113.75 356 131.05 370.9 141.45C358.2 145.85 346.6 152.65 336.8 161.45C323.3 149.95 307.4 141.15 290 135.95C311.1 123.15 325.3 99.85 325.3 73.35C325.3 32.95 292.6 0.25 252.2 0.25C211.8 0.25 179.1 33.05 179.1 73.35C179.1 99.85 193.2 123.15 214.4 135.95C197.2 141.15 181.5 149.85 168.1 161.15C158.3 152.55 146.9 145.85 134.4 141.55C149.2 131.15 159 113.85 159 94.35C159 62.45 133.2 36.65 101.3 36.65C69.4 36.65 43.6 62.45 43.6 94.35C43.6 113.85 53.3 131.15 68.2 141.55C28.5 155.25 0 192.95 0 237.25V243.85C0 244.05 0.2 244.25 0.4 244.25H122.7C122 249.75 121.6 255.45 121.6 261.15V267.95C121.6 297.35 145.4 321.15 174.8 321.15H329.8C359.2 321.15 383 297.35 383 267.95V261.15C383 255.45 382.6 249.75 381.9 244.25H505C505.2 244.25 505.4 244.05 505.4 243.85V237.25C505.2 192.85 476.8 155.15 437.1 141.45ZM362.3 94.15C362.3 71.15 381 52.45 404 52.45C427 52.45 445.7 71.15 445.7 94.15C445.7 116.85 427.4 135.35 404.8 135.85C404.5 135.85 404.3 135.85 404 135.85C403.7 135.85 403.5 135.85 403.2 135.85C380.5 135.45 362.3 116.95 362.3 94.15ZM194.9 73.35C194.9 41.85 220.5 16.25 252 16.25C283.5 16.25 309.1 41.85 309.1 73.35C309.1 103.75 285.2 128.65 255.3 130.35C254.2 130.35 253.1 130.35 252 130.35C250.9 130.35 249.8 130.35 248.7 130.35C218.8 128.65 194.9 103.75 194.9 73.35ZM59.3 94.15C59.3 71.15 78 52.45 101 52.45C124 52.45 142.7 71.15 142.7 94.15C142.7 116.85 124.4 135.35 101.8 135.85C101.5 135.85 101.3 135.85 101 135.85C100.7 135.85 100.5 135.85 100.2 135.85C77.6 135.45 59.3 116.95 59.3 94.15ZM125.5 228.15H16.2C20.7 185.55 56.7 152.15 100.4 151.85C100.6 151.85 100.8 151.85 101 151.85C101.2 151.85 101.4 151.85 101.6 151.85C122.4 151.95 141.4 159.65 156.1 172.15C141.7 187.75 131 206.95 125.5 228.15ZM366.8 267.95C366.8 288.45 350.1 305.15 329.6 305.15H174.6C154.1 305.15 137.4 288.45 137.4 267.95V261.15C137.4 199.05 187 148.25 248.7 146.45C249.8 146.55 251 146.55 252.1 146.55C253.2 146.55 254.4 146.55 255.5 146.45C317.2 148.25 366.8 199.05 366.8 261.15V267.95V267.95ZM378.7 228.15C373.2 207.05 362.7 188.15 348.4 172.55C363.2 159.75 382.4 152.05 403.4 151.85C403.6 151.85 403.8 151.85 404 151.85C404.2 151.85 404.4 151.85 404.6 151.85C448.3 152.15 484.3 185.55 488.8 228.15H378.7Z" fill="#596374"/>
</svg>
